
		<svg enable-background="new 0 0 160 44" version="1.1" viewBox="0 0 160 44" xml:space="preserve"
			xmlns="http://www.w3.org/2000/svg">
			<path class="logo"
				d="M15.88,22c0-9.36,5.86-17.35,14.12-20.53C27.54,0.52,24.86,0,22.06,0C9.88,0,0,9.85,0,22s9.88,22,22.06,22  c2.8,0,5.48-0.52,7.94-1.47C21.74,39.35,15.88,31.36,15.88,22z M37.94,0c-2.8,0-5.48,0.52-7.94,1.47  C38.26,4.65,44.12,12.64,44.12,22c0,9.36-5.86,17.35-14.12,20.53c2.46,0.95,5.14,1.47,7.94,1.47C50.12,44,60,34.15,60,22  S50.12,0,37.94,0z">
			</path>
		</svg>